<svg width="37" height="37" viewBox="0 0 37 37" fill="none" xmlns="http://www.w3.org/2000/svg">
<path fill-rule="evenodd" clip-rule="evenodd" d="M22.7206 33.6698H32.4682C33.2961 33.6698 33.9681 32.9975 33.9681 32.1692C33.9681 31.3408 33.2961 30.6685 32.4682 30.6685H22.7206C21.8927 30.6685 21.2207 31.3408 21.2207 32.1692C21.2207 32.9975 21.8927 33.6698 22.7206 33.6698ZM22.7206 29.1898H32.4682C33.2961 29.1898 33.9681 28.5175 33.9681 27.6891C33.9681 26.8607 33.2961 26.1884 32.4682 26.1884H22.7206C21.8927 26.1884 21.2207 26.8607 21.2207 27.6891C21.2207 28.5175 21.8927 29.1898 22.7206 29.1898ZM22.7206 24.7097H32.4682C33.2961 24.7097 33.9681 24.0374 33.9681 23.2091C33.9681 22.3807 33.2961 21.7084 32.4682 21.7084H22.7206C21.8927 21.7084 21.2207 22.3807 21.2207 23.2091C21.2207 24.0374 21.8927 24.7097 22.7206 24.7097Z" fill="#676675"/>
<path fill-rule="evenodd" clip-rule="evenodd" d="M12.8094 19.1394C11.0014 17.5156 9.8635 15.1595 9.8635 12.5393C9.8635 7.64411 13.8353 3.67029 18.7281 3.67029C23.6208 3.67029 27.5927 7.64411 27.5927 12.5393C27.5927 17.4346 23.6208 21.4084 18.7281 21.4084C18.4141 21.4084 18.1041 21.3924 17.7981 21.3604C16.2392 21.1943 14.6653 21.4634 13.2493 22.1367C9.55551 23.9095 6.96763 27.6753 6.96763 32.0403C6.96763 32.8686 6.29566 33.541 5.4677 33.541C4.63974 33.541 3.96777 32.8686 3.96777 32.0403C3.96777 26.1656 7.6386 21.1403 12.8094 19.1394ZM18.7281 6.67166C21.9649 6.67166 24.5928 9.30086 24.5928 12.5393C24.5928 15.7778 21.9649 18.407 18.7281 18.407C15.4912 18.407 12.8634 15.7778 12.8634 12.5393C12.8634 9.30086 15.4912 6.67166 18.7281 6.67166Z" fill="white"/>
</svg>
